<svg id="visual" viewBox="0 0 900 600" width="900" height="600" xmlns="http://www.w3.org/2000/svg" xmlns:xlink="http://www.w3.org/1999/xlink" version="1.1"><rect x="0" y="0" width="900" height="600" fill="#6CA1CC"></rect><path d="M0 132L15 141.3C30 150.7 60 169.3 90 175.2C120 181 150 174 180 158.7C210 143.3 240 119.7 270 112.5C300 105.3 330 114.7 360 120.8C390 127 420 130 450 151.2C480 172.3 510 211.7 540 229.3C570 247 600 243 630 227C660 211 690 183 720 162.7C750 142.3 780 129.7 810 127C840 124.3 870 131.7 885 135.3L900 139L900 601L885 601C870 601 840 601 810 601C780 601 750 601 720 601C690 601 660 601 630 601C600 601 570 601 540 601C510 601 480 601 450 601C420 601 390 601 360 601C330 601 300 601 270 601C240 601 210 601 180 601C150 601 120 601 90 601C60 601 30 601 15 601L0 601Z" fill="#629ece"></path><path d="M0 257L15 251.8C30 246.7 60 236.3 90 226.7C120 217 150 208 180 203.3C210 198.7 240 198.3 270 186.7C300 175 330 152 360 158.2C390 164.3 420 199.7 450 223.8C480 248 510 261 540 259.3C570 257.7 600 241.3 630 230.8C660 220.3 690 215.7 720 202.2C750 188.7 780 166.3 810 175.7C840 185 870 226 885 246.5L900 267L900 601L885 601C870 601 840 601 810 601C780 601 750 601 720 601C690 601 660 601 630 601C600 601 570 601 540 601C510 601 480 601 450 601C420 601 390 601 360 601C330 601 300 601 270 601C240 601 210 601 180 601C150 601 120 601 90 601C60 601 30 601 15 601L0 601Z" fill="#5c9ccf"></path><path d="M0 191L15 209.3C30 227.7 60 264.3 90 280.3C120 296.3 150 291.7 180 280.2C210 268.7 240 250.3 270 249.5C300 248.7 330 265.3 360 261C390 256.7 420 231.3 450 218.8C480 206.3 510 206.7 540 209.3C570 212 600 217 630 223.5C660 230 690 238 720 230.5C750 223 780 200 810 191C840 182 870 187 885 189.5L900 192L900 601L885 601C870 601 840 601 810 601C780 601 750 601 720 601C690 601 660 601 630 601C600 601 570 601 540 601C510 601 480 601 450 601C420 601 390 601 360 601C330 601 300 601 270 601C240 601 210 601 180 601C150 601 120 601 90 601C60 601 30 601 15 601L0 601Z" fill="#5699d1"></path><path d="M0 317L15 318.7C30 320.3 60 323.7 90 327.5C120 331.3 150 335.7 180 330.5C210 325.3 240 310.7 270 305.7C300 300.7 330 305.3 360 296C390 286.7 420 263.3 450 255.8C480 248.3 510 256.7 540 268.8C570 281 600 297 630 302.5C660 308 690 303 720 297.7C750 292.3 780 286.7 810 287.5C840 288.3 870 295.7 885 299.3L900 303L900 601L885 601C870 601 840 601 810 601C780 601 750 601 720 601C690 601 660 601 630 601C600 601 570 601 540 601C510 601 480 601 450 601C420 601 390 601 360 601C330 601 300 601 270 601C240 601 210 601 180 601C150 601 120 601 90 601C60 601 30 601 15 601L0 601Z" fill="#5097d2"></path><path d="M0 317L15 306.3C30 295.7 60 274.3 90 272.5C120 270.7 150 288.3 180 291.8C210 295.3 240 284.7 270 291.5C300 298.3 330 322.7 360 332.8C390 343 420 339 450 330.3C480 321.7 510 308.3 540 300.3C570 292.3 600 289.7 630 289.2C660 288.7 690 290.3 720 302.3C750 314.3 780 336.7 810 339.5C840 342.3 870 325.7 885 317.3L900 309L900 601L885 601C870 601 840 601 810 601C780 601 750 601 720 601C690 601 660 601 630 601C600 601 570 601 540 601C510 601 480 601 450 601C420 601 390 601 360 601C330 601 300 601 270 601C240 601 210 601 180 601C150 601 120 601 90 601C60 601 30 601 15 601L0 601Z" fill="#4a95d3"></path><path d="M0 384L15 385.2C30 386.3 60 388.7 90 383.2C120 377.7 150 364.3 180 355.2C210 346 240 341 270 332.5C300 324 330 312 360 321.3C390 330.7 420 361.3 450 372C480 382.7 510 373.3 540 369.2C570 365 600 366 630 355C660 344 690 321 720 315C750 309 780 320 810 319.2C840 318.3 870 305.7 885 299.3L900 293L900 601L885 601C870 601 840 601 810 601C780 601 750 601 720 601C690 601 660 601 630 601C600 601 570 601 540 601C510 601 480 601 450 601C420 601 390 601 360 601C330 601 300 601 270 601C240 601 210 601 180 601C150 601 120 601 90 601C60 601 30 601 15 601L0 601Z" fill="#4392d4"></path><path d="M0 387L15 385.3C30 383.7 60 380.3 90 371.2C120 362 150 347 180 342.3C210 337.7 240 343.3 270 352C300 360.7 330 372.3 360 374.8C390 377.3 420 370.7 450 373.2C480 375.7 510 387.3 540 384.3C570 381.3 600 363.7 630 366.5C660 369.3 690 392.7 720 402.7C750 412.7 780 409.3 810 397.2C840 385 870 364 885 353.5L900 343L900 601L885 601C870 601 840 601 810 601C780 601 750 601 720 601C690 601 660 601 630 601C600 601 570 601 540 601C510 601 480 601 450 601C420 601 390 601 360 601C330 601 300 601 270 601C240 601 210 601 180 601C150 601 120 601 90 601C60 601 30 601 15 601L0 601Z" fill="#3d90d6"></path><path d="M0 397L15 403.5C30 410 60 423 90 431.7C120 440.3 150 444.7 180 445.8C210 447 240 445 270 435.8C300 426.7 330 410.3 360 400.5C390 390.7 420 387.3 450 398C480 408.7 510 433.3 540 440.7C570 448 600 438 630 437C660 436 690 444 720 439.7C750 435.3 780 418.7 810 418C840 417.3 870 432.7 885 440.3L900 448L900 601L885 601C870 601 840 601 810 601C780 601 750 601 720 601C690 601 660 601 630 601C600 601 570 601 540 601C510 601 480 601 450 601C420 601 390 601 360 601C330 601 300 601 270 601C240 601 210 601 180 601C150 601 120 601 90 601C60 601 30 601 15 601L0 601Z" fill="#368dd7"></path><path d="M0 429L15 427.8C30 426.7 60 424.3 90 430.5C120 436.7 150 451.3 180 449.5C210 447.7 240 429.3 270 421.2C300 413 330 415 360 418C390 421 420 425 450 424.8C480 424.7 510 420.3 540 427.5C570 434.7 600 453.3 630 463.3C660 473.3 690 474.7 720 477.5C750 480.3 780 484.7 810 474C840 463.3 870 437.7 885 424.8L900 412L900 601L885 601C870 601 840 601 810 601C780 601 750 601 720 601C690 601 660 601 630 601C600 601 570 601 540 601C510 601 480 601 450 601C420 601 390 601 360 601C330 601 300 601 270 601C240 601 210 601 180 601C150 601 120 601 90 601C60 601 30 601 15 601L0 601Z" fill="#2f8ad7"></path><path d="M0 515L15 512.2C30 509.3 60 503.7 90 501.2C120 498.7 150 499.3 180 495C210 490.7 240 481.3 270 479.8C300 478.3 330 484.7 360 489.3C390 494 420 497 450 497.8C480 498.7 510 497.3 540 489.5C570 481.7 600 467.3 630 467.3C660 467.3 690 481.7 720 490.3C750 499 780 502 810 505C840 508 870 511 885 512.5L900 514L900 601L885 601C870 601 840 601 810 601C780 601 750 601 720 601C690 601 660 601 630 601C600 601 570 601 540 601C510 601 480 601 450 601C420 601 390 601 360 601C330 601 300 601 270 601C240 601 210 601 180 601C150 601 120 601 90 601C60 601 30 601 15 601L0 601Z" fill="#2888d8"></path><path d="M0 491L15 491.8C30 492.7 60 494.3 90 500.8C120 507.3 150 518.7 180 526.5C210 534.3 240 538.7 270 538.2C300 537.7 330 532.3 360 525.5C390 518.7 420 510.3 450 508.3C480 506.3 510 510.7 540 513.3C570 516 600 517 630 520.2C660 523.3 690 528.7 720 531.5C750 534.3 780 534.7 810 535.8C840 537 870 539 885 540L900 541L900 601L885 601C870 601 840 601 810 601C780 601 750 601 720 601C690 601 660 601 630 601C600 601 570 601 540 601C510 601 480 601 450 601C420 601 390 601 360 601C330 601 300 601 270 601C240 601 210 601 180 601C150 601 120 601 90 601C60 601 30 601 15 601L0 601Z" fill="#2085d9"></path><path d="M0 558L15 554.7C30 551.3 60 544.7 90 544.5C120 544.3 150 550.7 180 553.3C210 556 240 555 270 552.2C300 549.3 330 544.7 360 547.7C390 550.7 420 561.3 450 565.3C480 569.3 510 566.7 540 561.7C570 556.7 600 549.3 630 544.2C660 539 690 536 720 538.5C750 541 780 549 810 549.7C840 550.3 870 543.7 885 540.3L900 537L900 601L885 601C870 601 840 601 810 601C780 601 750 601 720 601C690 601 660 601 630 601C600 601 570 601 540 601C510 601 480 601 450 601C420 601 390 601 360 601C330 601 300 601 270 601C240 601 210 601 180 601C150 601 120 601 90 601C60 601 30 601 15 601L0 601Z" fill="#1782da"></path></svg>